<svg xmlns="http://www.w3.org/2000/svg" viewBox="0 0 1100 298" width="1100" height="298"><path fill="#ffffff" fill-rule="evenodd" d="M129.50 34.00 L145.00 33.50 L151.00 35.50 L156.50 41.00 L158.50 46.00 L159.50 64.00 L160.50 65.00 L160.50 72.00 L161.50 73.00 L161.50 80.00 L162.50 81.00 L162.50 89.00 L163.50 90.00 L164.50 106.00 L165.50 107.00 L165.50 114.00 L166.50 115.00 L166.50 122.00 L167.50 123.00 L169.50 148.00 L171.50 156.00 L171.50 163.00 L172.50 164.00 L173.50 179.00 L174.50 180.00 L175.50 195.00 L176.50 196.00 L176.50 203.00 L177.50 205.00 L175.00 207.50 L152.00 207.50 L149.50 205.00 L143.00 153.50 L69.00 153.50 L63.50 160.00 L62.50 163.00 L35.50 203.00 L32.00 206.50 L30.00 207.50 L6.00 207.50 L4.50 206.00 L4.50 204.00 L26.50 173.00 L93.50 72.00 L96.50 69.00 L111.50 45.00 L121.00 36.50 L129.00 34.50ZM243.50 35.00 L262.00 34.50 L265.50 38.00 L259.50 60.00 L255.00 64.50 L252.00 65.50 L239.00 65.50 L234.50 63.00 L233.50 60.00 L237.50 48.00 L237.50 45.00 L240.50 37.00 L243.00 35.50ZM399.50 35.00 L400.50 35.00 L400.00 35.50ZM424.50 35.00 L425.50 35.00 L425.00 35.50ZM538.50 35.00 L539.50 35.00 L539.00 35.50ZM565.50 35.00 L566.50 35.00 L566.00 35.50ZM426.50 36.00 L427.50 36.00 L427.00 36.50ZM535.50 36.00 L536.50 36.00 L536.00 36.50ZM567.50 37.00 L568.50 37.00 L568.00 40.50 L567.50 38.00ZM396.50 38.00 L397.50 38.00 L397.00 38.50ZM532.50 38.00 L533.50 38.00 L531.00 40.50 L532.00 38.50ZM429.50 39.00 L430.50 39.00 L430.00 39.50ZM395.50 41.00 L396.50 41.00 L396.00 41.50ZM430.50 41.00 L431.50 41.00 L431.00 41.50ZM431.50 43.00 L432.50 43.00 L432.00 44.50 L431.50 44.00ZM566.50 43.00 L567.50 43.00 L567.00 44.50 L566.50 44.00ZM394.50 45.00 L395.50 45.00 L395.00 46.50 L394.50 46.00ZM432.50 46.00 L433.50 46.00 L433.00 46.50ZM524.50 47.00 L525.50 47.00 L518.00 54.50 L524.00 47.50ZM565.50 47.00 L566.50 47.00 L566.00 48.50 L565.50 48.00ZM393.50 49.00 L394.50 49.00 L394.00 49.50ZM433.50 49.00 L434.50 49.00 L434.00 49.50ZM434.50 51.00 L435.50 51.00 L435.00 51.50ZM564.50 51.00 L565.50 51.00 L565.00 51.50ZM392.50 53.00 L393.50 53.00 L393.00 53.50ZM435.50 54.00 L436.50 54.00 L436.00 54.50ZM563.50 55.00 L564.50 55.00 L564.00 55.50ZM391.50 57.00 L392.50 57.00 L392.00 57.50ZM132.00 57.50 L90.50 119.00 L89.50 122.00 L81.50 133.00 L82.00 134.50 L141.50 134.00 L140.50 132.00 L137.50 96.00 L136.50 95.00 L136.50 88.00 L135.50 87.00 L132.50 58.00ZM437.50 59.00 L438.50 59.00 L438.00 59.50ZM562.50 59.00 L563.50 59.00 L563.00 59.50ZM390.50 61.00 L391.50 61.00 L391.00 61.50ZM511.50 61.00 L512.50 61.00 L505.00 68.50 L511.00 61.50ZM438.50 62.00 L439.50 62.00 L439.00 62.50ZM561.50 62.00 L562.50 62.00 L562.00 63.50 L561.50 63.00ZM389.50 64.00 L390.50 64.00 L390.00 65.50 L389.50 65.00ZM439.50 64.00 L440.50 64.00 L440.00 64.50ZM560.50 66.00 L561.50 66.00 L561.00 67.50 L560.50 67.00ZM440.50 67.00 L441.50 67.00 L441.00 67.50ZM388.50 68.00 L389.50 68.00 L389.00 69.50 L388.50 69.00ZM441.50 69.00 L442.50 69.00 L442.00 69.50ZM559.50 70.00 L560.50 70.00 L560.00 70.50ZM387.50 72.00 L388.50 72.00 L388.00 73.50 L387.50 73.00ZM442.50 72.00 L443.50 72.00 L443.00 72.50ZM443.50 74.00 L444.50 74.00 L444.00 74.50ZM558.50 74.00 L559.50 74.00 L559.00 74.50ZM386.50 76.00 L387.50 76.00 L387.00 76.50ZM414.50 76.00 L416.50 77.00 L415.00 76.50ZM444.50 77.00 L445.50 77.00 L445.00 77.50ZM496.50 77.00 L497.50 77.00 L491.00 83.50 L496.00 77.50ZM528.50 77.00 L529.50 77.00 L529.00 79.50 L528.50 78.00ZM557.50 77.00 L558.50 77.00 L558.00 78.50 L557.50 78.00ZM416.50 79.00 L417.50 79.00 L417.00 80.50 L416.50 80.00ZM445.50 79.00 L446.50 79.00 L446.00 80.50 L445.50 80.00ZM385.50 80.00 L386.50 80.00 L386.00 80.50ZM413.50 80.00 L414.50 80.00 L414.00 80.50ZM556.50 81.00 L557.50 81.00 L557.00 81.50ZM417.50 82.00 L418.50 82.00 L418.00 82.50ZM446.50 82.00 L447.50 82.00 L447.00 82.50ZM384.50 83.00 L385.50 83.00 L385.00 83.50ZM522.50 83.00 L515.00 91.50 L522.00 83.50ZM527.50 83.00 L528.50 83.00 L528.00 83.50ZM412.50 84.00 L413.50 84.00 L413.00 84.50ZM623.50 84.00 L630.50 84.00 L624.00 84.50ZM651.50 84.00 L656.50 84.00 L652.00 84.50ZM760.50 84.00 L789.50 84.00 L761.00 84.50ZM881.50 84.00 L910.50 84.00 L882.00 84.50ZM320.50 85.00 L347.00 84.50 L348.00 85.50 L352.00 85.50 L354.50 88.00 L354.50 91.00 L350.50 103.00 L348.00 104.50 L318.00 104.50 L307.00 108.50 L299.50 116.00 L295.50 124.00 L295.50 127.00 L291.50 137.00 L291.50 140.00 L288.50 147.00 L288.50 150.00 L284.50 160.00 L284.50 163.00 L280.50 173.00 L280.50 176.00 L273.50 196.00 L271.50 205.00 L269.00 207.50 L246.00 207.50 L244.50 206.00 L244.50 203.00 L249.50 190.00 L249.50 187.00 L263.50 144.00 L263.50 141.00 L266.50 134.00 L269.50 121.00 L274.50 110.00 L278.50 104.00 L286.00 96.50 L292.00 92.50 L304.00 87.50 L312.00 86.50 L313.00 85.50 L320.00 85.50ZM418.50 85.00 L419.50 85.00 L419.00 85.50ZM447.50 85.00 L448.50 85.00 L448.00 85.50ZM555.50 85.00 L556.50 85.00 L556.00 85.50ZM615.50 85.00 L617.50 85.00 L616.00 85.50ZM662.50 85.00 L664.50 85.00 L663.00 85.50ZM749.50 85.00 L751.50 85.00 L750.00 85.50ZM801.50 85.00 L808.50 85.00 L802.00 85.50ZM870.50 85.00 L873.50 85.00 L871.00 85.50ZM922.50 85.00 L929.50 85.00 L923.00 85.50ZM227.50 86.00 L249.00 85.50 L251.50 88.00 L248.50 101.00 L245.50 108.00 L244.50 115.00 L242.50 119.00 L241.50 126.00 L231.50 156.00 L231.50 159.00 L228.50 166.00 L227.50 173.00 L224.50 180.00 L224.50 183.00 L220.50 193.00 L217.50 205.00 L215.00 207.50 L193.00 207.50 L190.50 205.00 L192.50 197.00 L208.50 147.00 L209.50 140.00 L220.50 106.00 L222.50 96.00 L224.50 90.00 L227.00 86.50ZM526.50 86.00 L527.50 86.00 L527.00 87.50 L526.50 87.00ZM610.50 86.00 L612.50 86.00 L611.00 86.50ZM667.50 86.00 L669.50 86.00 L668.00 86.50ZM744.50 86.00 L745.50 86.00 L745.00 86.50ZM816.50 86.00 L818.50 86.00 L817.00 86.50ZM864.50 86.00 L866.50 86.00 L865.00 86.50ZM938.50 86.00 L941.50 86.00 L939.00 86.50ZM383.50 87.00 L384.50 87.00 L384.00 87.50ZM411.50 87.00 L412.50 87.00 L412.00 87.50ZM419.50 87.00 L420.50 87.00 L420.00 87.50ZM606.50 87.00 L608.50 87.00 L607.00 87.50ZM671.50 87.00 L672.50 87.00 L672.00 87.50ZM740.50 87.00 L741.50 87.00 L741.00 87.50ZM819.50 87.00 L821.50 88.00 L820.00 87.50ZM861.50 87.00 L862.50 87.00 L862.00 87.50ZM448.50 88.00 L449.50 88.00 L449.00 88.50ZM554.50 88.00 L555.50 88.00 L555.00 89.50 L554.50 89.00ZM603.50 88.00 L605.50 88.00 L604.00 88.50ZM673.50 88.00 L675.50 88.00 L674.00 88.50ZM737.50 88.00 L738.50 88.00 L738.00 88.50ZM858.50 88.00 L859.50 88.00 L859.00 88.50ZM942.50 88.00 L943.50 88.00 L943.00 88.50ZM601.50 89.00 L602.50 89.00 L602.00 89.50ZM676.50 89.00 L677.50 89.00 L677.00 89.50ZM734.50 89.00 L735.50 89.00 L735.00 89.50ZM855.50 89.00 L856.50 89.00 L856.00 89.50ZM382.50 90.00 L383.50 90.00 L383.00 91.50 L382.50 91.00ZM420.50 90.00 L421.50 90.00 L421.00 90.50ZM449.50 90.00 L450.50 90.00 L450.00 90.50ZM484.50 90.00 L485.50 90.00 L481.00 94.50 L484.00 90.50ZM525.50 90.00 L526.50 90.00 L526.00 91.50 L525.50 91.00ZM598.50 90.00 L599.50 90.00 L599.00 90.50ZM678.50 90.00 L679.50 90.00 L679.00 90.50ZM732.50 90.00 L733.50 90.00 L733.00 90.50ZM853.50 90.00 L854.50 90.00 L854.00 90.50ZM942.50 90.00 L943.50 90.00 L943.00 91.50 L942.50 91.00ZM410.50 91.00 L411.50 91.00 L411.00 91.50ZM596.50 91.00 L597.50 91.00 L597.00 91.50ZM680.50 91.00 L681.50 91.00 L681.00 91.50ZM730.50 91.00 L731.50 91.00 L731.00 91.50ZM820.50 91.00 L821.50 91.00 L821.00 92.50 L820.50 92.00ZM851.50 91.00 L852.50 91.00 L852.00 91.50ZM421.50 92.00 L422.50 92.00 L422.00 92.50ZM553.50 92.00 L554.50 92.00 L554.00 93.50 L553.50 93.00ZM594.50 92.00 L595.50 92.00 L595.00 92.50ZM728.50 92.00 L729.50 92.00 L728.00 93.50 L728.00 92.50ZM450.50 93.00 L451.50 93.00 L451.00 93.50ZM683.50 93.00 L689.50 98.00 L684.00 93.50ZM848.50 93.00 L849.50 93.00 L849.00 93.50ZM381.50 94.00 L382.50 94.00 L382.00 94.50ZM409.50 94.00 L410.50 94.00 L410.00 95.50 L409.50 95.00ZM591.50 94.00 L592.50 94.00 L592.00 94.50ZM941.50 94.00 L942.50 94.00 L942.00 95.50 L941.50 95.00ZM422.50 95.00 L423.50 95.00 L423.00 95.50ZM524.50 95.00 L525.50 95.00 L525.00 95.50ZM819.50 95.00 L820.50 95.00 L820.00 95.50ZM451.50 96.00 L452.50 96.00 L452.00 96.50ZM552.50 96.00 L553.50 96.00 L553.00 97.50 L552.50 97.00ZM423.50 97.00 L424.50 97.00 L424.00 97.50ZM587.50 97.00 L588.50 97.00 L581.00 104.50 L587.00 97.50ZM940.50 97.00 L941.50 97.00 L941.00 98.50 L940.50 98.00ZM380.50 98.00 L381.50 98.00 L381.00 98.50ZM408.50 98.00 L409.50 98.00 L409.00 98.50ZM452.50 98.00 L453.50 98.00 L453.00 98.50ZM818.50 98.00 L819.50 98.00 L819.00 99.50 L818.50 99.00ZM523.50 99.00 L524.50 99.00 L524.00 99.50ZM424.50 100.00 L425.50 100.00 L425.00 100.50ZM551.50 100.00 L552.50 100.00 L552.00 100.50ZM379.50 101.00 L380.50 101.00 L380.00 102.50 L379.50 102.00ZM407.50 101.00 L408.50 101.00 L408.00 102.50 L407.50 102.00ZM453.50 101.00 L454.50 101.00 L454.00 101.50ZM690.50 101.00 L691.50 101.00 L691.00 101.50ZM719.50 101.00 L720.50 101.00 L719.00 102.50 L719.00 101.50ZM840.50 101.00 L841.50 101.00 L841.00 101.50ZM939.50 101.00 L940.50 101.00 L940.00 102.50 L939.50 102.00ZM425.50 102.00 L426.50 102.00 L426.00 102.50ZM473.50 102.00 L474.50 102.00 L469.00 107.50 L473.00 102.50ZM522.50 102.00 L523.50 102.00 L523.00 103.50 L522.50 103.00ZM817.50 102.00 L818.50 102.00 L818.00 102.50ZM454.50 103.00 L455.50 103.00 L455.00 104.50 L454.50 104.00ZM503.50 103.00 L504.50 103.00 L497.00 110.50 L503.00 103.50ZM550.50 103.00 L551.50 103.00 L551.00 104.50 L550.50 104.00ZM642.50 103.00 L643.50 103.00 L643.00 103.50ZM691.50 103.00 L692.50 103.00 L692.00 103.50ZM624.50 104.00 L627.50 104.00 L625.00 104.50ZM650.50 104.00 L653.50 104.00 L651.00 104.50ZM717.50 104.00 L718.50 104.00 L718.00 104.50ZM755.50 104.00 L759.50 104.00 L756.00 104.50ZM792.50 104.00 L799.50 104.00 L793.00 104.50ZM838.50 104.00 L839.50 104.00 L839.00 104.50ZM877.50 104.00 L881.50 104.00 L878.00 104.50ZM914.50 104.00 L922.50 104.00 L915.00 104.50ZM937.50 104.00 L938.50 104.00 L938.00 104.50ZM378.50 105.00 L379.50 105.00 L379.00 106.50 L378.50 106.00ZM406.50 105.00 L407.50 105.00 L407.00 106.50 L406.50 106.00ZM426.50 105.00 L427.50 105.00 L427.00 105.50ZM619.50 105.00 L621.50 105.00 L620.00 105.50ZM656.50 105.00 L657.50 105.00 L657.00 105.50ZM692.50 105.00 L693.50 105.00 L693.00 106.50 L692.50 106.00ZM751.50 105.00 L752.50 105.00 L752.00 105.50ZM810.50 105.00 L814.50 105.00 L811.00 105.50ZM872.50 105.00 L874.50 105.00 L873.00 105.50ZM455.50 106.00 L456.50 106.00 L456.00 106.50ZM521.50 106.00 L522.50 106.00 L522.00 107.50 L521.50 107.00ZM616.50 106.00 L617.50 106.00 L617.00 106.50ZM658.50 106.00 L659.50 106.00 L659.00 106.50ZM716.50 106.00 L717.50 106.00 L717.00 106.50ZM748.50 106.00 L749.50 106.00 L749.00 106.50ZM837.50 106.00 L838.50 106.00 L838.00 106.50ZM869.50 106.00 L870.50 106.00 L870.00 106.50ZM549.50 107.00 L550.50 107.00 L550.00 107.50ZM578.50 107.00 L579.50 107.00 L579.00 107.50ZM613.50 107.00 L614.50 107.00 L614.00 107.50ZM746.50 107.00 L747.50 107.00 L747.00 107.50ZM867.50 107.00 L868.50 107.00 L868.00 107.50ZM427.50 108.00 L428.50 108.00 L428.00 108.50ZM662.50 108.00 L666.50 111.00 L663.00 108.50ZM715.50 108.00 L716.50 108.00 L716.00 108.50ZM836.50 108.00 L837.50 108.00 L837.00 108.50ZM377.50 109.00 L378.50 109.00 L378.00 110.50 L377.50 110.00ZM405.50 109.00 L406.50 109.00 L406.00 110.50 L405.50 110.00ZM456.50 109.00 L457.50 109.00 L457.00 109.50ZM610.50 109.00 L611.50 109.00 L611.00 109.50ZM693.50 109.00 L694.50 109.00 L694.00 110.50 L693.50 110.00ZM743.50 109.00 L744.50 109.00 L742.00 111.50 L743.00 109.50ZM864.50 109.00 L865.50 109.00 L863.00 111.50 L864.00 109.50ZM428.50 110.00 L429.50 110.00 L429.00 110.50ZM520.50 110.00 L521.50 110.00 L521.00 110.50ZM548.50 110.00 L549.50 110.00 L549.00 111.50 L548.50 111.00ZM576.50 110.00 L577.50 110.00 L577.00 110.50ZM608.50 110.00 L609.50 110.00 L607.00 112.50 L608.00 110.50ZM714.50 110.00 L715.50 110.00 L715.00 110.50ZM835.50 110.00 L836.50 110.00 L836.00 110.50ZM457.50 112.00 L458.50 112.00 L458.00 112.50ZM376.50 113.00 L377.50 113.00 L377.00 114.50 L376.50 114.00ZM404.50 113.00 L405.50 113.00 L405.00 114.50 L404.50 114.00ZM429.50 113.00 L430.50 113.00 L430.00 113.50ZM463.50 113.00 L464.50 113.00 L462.00 115.50 L463.00 113.50ZM519.50 113.00 L520.50 113.00 L520.00 114.50 L519.50 114.00ZM574.50 113.00 L575.50 113.00 L575.00 113.50ZM666.50 113.00 L667.50 113.00 L667.00 113.50ZM713.50 113.00 L714.50 113.00 L714.00 113.50ZM834.50 113.00 L835.50 113.00 L835.00 113.50ZM861.50 113.00 L862.50 113.00 L862.00 113.50ZM458.50 114.00 L459.50 114.00 L459.00 114.50ZM547.50 114.00 L548.50 114.00 L548.00 114.50ZM739.50 114.00 L740.50 114.00 L740.00 114.50ZM430.50 115.00 L431.50 115.00 L431.00 116.50 L430.50 116.00ZM573.50 115.00 L574.50 115.00 L574.00 115.50ZM603.50 115.00 L604.50 115.00 L602.00 117.50 L603.00 115.50ZM860.50 115.00 L861.50 115.00 L861.00 115.50ZM403.50 116.00 L404.50 116.00 L404.00 117.50 L403.50 117.00ZM459.50 116.00 L460.50 116.00 L460.00 116.50ZM667.50 116.00 L668.50 116.00 L668.00 116.50ZM694.50 116.00 L695.50 116.00 L695.00 123.50 L694.50 117.00ZM712.50 116.00 L713.50 116.00 L713.00 117.50 L712.50 117.00ZM375.50 117.00 L376.50 117.00 L376.00 117.50ZM518.50 117.00 L519.50 117.00 L519.00 118.50 L518.50 118.00ZM546.50 117.00 L547.50 117.00 L547.00 118.50 L546.50 118.00ZM572.50 117.00 L573.50 117.00 L573.00 117.50ZM738.50 117.00 L739.50 117.00 L739.00 118.50 L738.50 118.00ZM833.50 117.00 L834.50 117.00 L834.00 118.50 L833.50 118.00ZM859.50 117.00 L860.50 117.00 L860.00 119.50 L859.50 118.00ZM431.50 118.00 L432.50 118.00 L432.00 118.50ZM489.50 118.00 L490.50 118.00 L484.00 124.50 L489.00 118.50ZM600.50 119.00 L601.50 119.00 L601.00 119.50ZM402.50 120.00 L403.50 120.00 L403.00 121.50 L402.50 121.00ZM571.50 120.00 L572.50 120.00 L572.00 120.50ZM374.50 121.00 L375.50 121.00 L375.00 121.50ZM432.50 121.00 L433.50 121.00 L433.00 121.50ZM517.50 121.00 L518.50 121.00 L518.00 122.50 L517.50 122.00ZM545.50 121.00 L546.50 121.00 L546.00 121.50ZM570.50 122.00 L571.50 122.00 L571.00 122.50ZM598.50 122.00 L599.50 122.00 L599.00 122.50ZM711.50 122.00 L712.50 122.00 L712.00 125.50 L711.50 123.00ZM832.50 122.00 L833.50 122.00 L833.00 125.50 L832.50 123.00ZM433.50 123.00 L434.50 123.00 L434.00 123.50ZM738.50 123.00 L739.50 123.00 L739.00 124.50 L738.50 124.00ZM859.50 123.00 L860.50 123.00 L860.00 124.50 L859.50 124.00ZM373.50 124.00 L374.50 124.00 L374.00 125.50 L373.50 125.00ZM401.50 124.00 L402.50 124.00 L402.00 124.50ZM516.50 125.00 L517.50 125.00 L517.00 125.50ZM544.50 125.00 L545.50 125.00 L545.00 125.50ZM569.50 125.00 L570.50 125.00 L570.00 125.50ZM597.50 125.00 L598.50 125.00 L598.00 125.50ZM434.50 126.00 L435.50 126.00 L435.00 126.50ZM667.50 126.00 L668.50 126.00 L668.00 127.50 L667.50 127.00ZM739.50 126.00 L742.50 128.00 L740.00 126.50ZM860.50 126.00 L863.50 128.00 L861.00 126.50ZM596.50 127.00 L597.50 127.00 L597.00 127.50ZM693.50 127.00 L694.50 127.00 L694.00 128.50 L693.50 128.00ZM372.50 128.00 L373.50 128.00 L373.00 128.50ZM400.50 128.00 L401.50 128.00 L401.00 128.50ZM515.50 128.00 L516.50 128.00 L516.00 129.50 L515.50 129.00ZM543.50 128.00 L544.50 128.00 L544.00 129.50 L543.50 129.00ZM568.50 128.00 L569.50 128.00 L569.00 128.50ZM435.50 129.00 L436.50 129.00 L436.00 129.50ZM479.50 129.00 L480.50 129.00 L475.00 134.50 L479.00 129.50ZM595.50 130.00 L596.50 130.00 L596.00 131.50 L595.50 131.00ZM666.50 130.00 L667.50 130.00 L667.00 130.50ZM711.50 130.00 L712.50 130.00 L712.00 131.50 L711.50 131.00ZM745.50 130.00 L746.50 130.00 L746.00 130.50ZM832.50 130.00 L833.50 130.00 L833.00 132.50 L832.50 131.00ZM866.50 130.00 L867.50 130.00 L867.00 130.50ZM371.50 131.00 L372.50 131.00 L372.00 132.50 L371.50 132.00ZM399.50 131.00 L400.50 131.00 L400.00 132.50 L399.50 132.00ZM436.50 131.00 L437.50 131.00 L437.00 131.50ZM567.50 131.00 L568.50 131.00 L568.00 131.50ZM747.50 131.00 L749.50 131.00 L748.00 131.50ZM868.50 131.00 L870.50 131.00 L869.00 131.50ZM514.50 132.00 L515.50 132.00 L515.00 133.50 L514.50 133.00ZM542.50 132.00 L543.50 132.00 L543.00 133.50 L542.50 133.00ZM692.50 132.00 L693.50 132.00 L693.00 133.50 L692.50 133.00ZM751.50 132.00 L752.50 132.00 L752.00 132.50ZM872.50 132.00 L873.50 132.00 L873.00 132.50ZM665.50 133.00 L666.50 133.00 L666.00 134.50 L665.50 134.00ZM754.50 133.00 L756.50 133.00 L755.00 133.50ZM875.50 133.00 L877.50 133.00 L876.00 133.50ZM594.50 134.00 L595.50 134.00 L595.00 134.50ZM759.50 134.00 L761.50 134.00 L760.00 134.50ZM880.50 134.00 L881.50 134.00 L881.00 134.50ZM370.50 135.00 L371.50 135.00 L371.00 135.50ZM398.50 135.00 L399.50 135.00 L399.00 135.50ZM566.50 135.00 L567.50 135.00 L567.00 135.50ZM712.50 135.00 L713.50 135.00 L713.00 135.50ZM763.50 135.00 L765.50 135.00 L764.00 135.50ZM833.50 135.00 L834.50 135.00 L834.00 135.50ZM884.50 135.00 L886.50 135.00 L885.00 135.50ZM438.50 136.00 L439.50 136.00 L439.00 136.50ZM513.50 136.00 L514.50 136.00 L514.00 137.50 L513.50 137.00ZM541.50 136.00 L542.50 136.00 L542.00 136.50ZM691.50 136.00 L692.50 136.00 L692.00 137.50 L691.50 137.00ZM768.50 136.00 L769.50 136.00 L769.00 136.50ZM888.50 136.00 L890.50 136.00 L889.00 136.50ZM772.50 137.00 L774.50 137.00 L773.00 137.50ZM892.50 137.00 L895.50 137.00 L893.00 137.50ZM397.50 138.00 L398.50 138.00 L398.00 139.50 L397.50 139.00ZM565.50 138.00 L566.50 138.00 L566.00 138.50ZM776.50 138.00 L778.50 138.00 L777.00 138.50ZM834.50 138.00 L835.50 138.00 L835.00 138.50ZM897.50 138.00 L898.50 138.00 L898.00 138.50ZM369.50 139.00 L370.50 139.00 L370.00 139.50ZM439.50 139.00 L440.50 139.00 L440.00 139.50ZM470.50 139.00 L471.50 139.00 L471.00 139.50ZM540.50 139.00 L541.50 139.00 L541.00 140.50 L540.50 140.00ZM690.50 139.00 L691.50 139.00 L691.00 140.50 L690.50 140.00ZM780.50 139.00 L782.50 139.00 L781.00 139.50ZM900.50 139.00 L902.50 139.00 L901.00 139.50ZM512.50 140.00 L513.50 140.00 L513.00 141.50 L512.50 141.00ZM783.50 140.00 L785.50 140.00 L784.00 140.50ZM904.50 140.00 L906.50 140.00 L905.00 140.50ZM467.50 141.00 L468.50 141.00 L468.00 141.50ZM564.50 141.00 L565.50 141.00 L565.00 141.50ZM715.50 141.00 L719.50 144.00 L716.00 141.50ZM787.50 141.00 L788.50 141.00 L788.00 141.50ZM836.50 141.00 L840.50 144.00 L837.00 141.50ZM908.50 141.00 L909.50 141.00 L909.00 141.50ZM368.50 142.00 L369.50 142.00 L369.00 142.50ZM396.50 142.00 L397.50 142.00 L397.00 143.50 L396.50 143.00ZM442.50 142.00 L443.50 142.00 L443.00 142.50ZM465.50 142.00 L466.50 142.00 L466.00 142.50ZM790.50 142.00 L791.50 142.00 L791.00 142.50ZM911.50 142.00 L912.50 142.00 L912.00 142.50ZM444.50 143.00 L446.50 143.00 L445.00 143.50ZM461.50 143.00 L463.50 143.00 L462.00 143.50ZM539.50 143.00 L540.50 143.00 L540.00 144.50 L539.50 144.00ZM689.50 143.00 L690.50 143.00 L690.00 143.50ZM792.50 143.00 L793.50 143.00 L793.00 143.50ZM913.50 143.00 L914.50 143.00 L914.00 143.50ZM511.50 144.00 L512.50 144.00 L512.00 144.50ZM915.50 144.00 L916.50 144.00 L916.00 144.50ZM563.50 145.00 L564.50 145.00 L564.00 145.50ZM796.50 145.00 L797.50 145.00 L797.00 145.50ZM917.50 145.00 L918.50 145.00 L918.00 145.50ZM367.50 146.00 L368.50 146.00 L368.00 146.50ZM395.50 146.00 L396.50 146.00 L396.00 146.50ZM688.50 146.00 L689.50 146.00 L689.00 146.50ZM721.50 146.00 L722.50 146.00 L722.00 146.50ZM842.50 146.00 L843.50 146.00 L843.00 146.50ZM538.50 147.00 L539.50 147.00 L539.00 148.50 L538.50 148.00ZM723.50 147.00 L724.50 147.00 L724.00 147.50ZM799.50 147.00 L803.50 150.00 L800.00 147.50ZM844.50 147.00 L845.50 147.00 L845.00 147.50ZM920.50 147.00 L925.50 151.00 L921.00 147.50ZM510.50 148.00 L511.50 148.00 L511.00 148.50ZM725.50 148.00 L726.50 148.00 L726.00 148.50ZM846.50 148.00 L847.50 148.00 L847.00 148.50ZM366.50 149.00 L367.50 149.00 L367.00 150.50 L366.50 150.00ZM394.50 149.00 L395.50 149.00 L395.00 150.50 L394.50 150.00ZM562.50 149.00 L563.50 149.00 L563.00 149.50ZM687.50 149.00 L688.50 149.00 L688.00 149.50ZM727.50 149.00 L728.50 149.00 L728.00 149.50ZM848.50 149.00 L849.50 149.00 L849.00 149.50ZM537.50 150.00 L538.50 150.00 L538.00 151.50 L537.50 151.00ZM730.50 150.00 L731.50 150.00 L731.00 150.50ZM851.50 150.00 L852.50 150.00 L852.00 150.50ZM509.50 151.00 L510.50 151.00 L510.00 152.50 L509.50 152.00ZM733.50 151.00 L735.50 151.00 L734.00 151.50ZM854.50 151.00 L856.50 151.00 L855.00 151.50ZM561.50 152.00 L562.50 152.00 L562.00 153.50 L561.50 153.00ZM684.50 152.00 L685.50 152.00 L685.00 152.50ZM737.50 152.00 L739.50 152.00 L738.00 152.50ZM858.50 152.00 L859.50 152.00 L859.00 152.50ZM365.50 153.00 L366.50 153.00 L366.00 154.50 L365.50 154.00ZM393.50 153.00 L394.50 153.00 L394.00 154.50 L393.50 154.00ZM677.50 153.00 L682.50 153.00 L678.00 153.50ZM741.50 153.00 L743.50 153.00 L742.00 153.50ZM804.50 153.00 L805.50 153.00 L805.00 153.50ZM862.50 153.00 L864.50 153.00 L863.00 153.50ZM925.50 153.00 L926.50 153.00 L926.00 153.50ZM536.50 154.00 L537.50 154.00 L537.00 155.50 L536.50 155.00ZM588.50 154.00 L589.50 154.00 L589.00 154.50ZM745.50 154.00 L747.50 154.00 L746.00 154.50ZM866.50 154.00 L868.50 154.00 L867.00 154.50ZM508.50 155.00 L509.50 155.00 L509.00 155.50ZM750.50 155.00 L752.50 155.00 L751.00 155.50ZM805.50 155.00 L806.50 155.00 L806.00 155.50ZM871.50 155.00 L873.50 155.00 L872.00 155.50ZM926.50 155.00 L927.50 155.00 L927.00 155.50ZM364.50 156.00 L365.50 156.00 L365.00 157.50 L364.50 157.00ZM560.50 156.00 L561.50 156.00 L561.00 157.50 L560.50 157.00ZM754.50 156.00 L756.50 156.00 L755.00 156.50ZM876.50 156.00 L878.50 156.00 L877.00 156.50ZM392.50 157.00 L393.50 157.00 L393.00 157.50ZM759.50 157.00 L761.50 157.00 L760.00 157.50ZM880.50 157.00 L882.50 157.00 L881.00 157.50ZM507.50 158.00 L508.50 158.00 L508.00 159.50 L507.50 159.00ZM535.50 158.00 L536.50 158.00 L536.00 158.50ZM587.50 158.00 L588.50 158.00 L588.00 158.50ZM763.50 158.00 L765.50 158.00 L764.00 158.50ZM806.50 158.00 L807.50 158.00 L807.00 159.50 L806.50 159.00ZM884.50 158.00 L886.50 158.00 L885.00 158.50ZM927.50 158.00 L928.50 158.00 L928.00 159.50 L927.50 159.00ZM767.50 159.00 L768.50 159.00 L768.00 159.50ZM888.50 159.00 L889.50 159.00 L889.00 159.50ZM363.50 160.00 L364.50 160.00 L364.00 161.50 L363.50 161.00ZM391.50 160.00 L392.50 160.00 L392.00 161.50 L391.50 161.00ZM770.50 160.00 L771.50 160.00 L771.00 160.50ZM534.50 161.00 L535.50 161.00 L535.00 162.50 L534.50 162.00ZM559.50 161.00 L560.50 161.00 L560.00 161.50ZM773.50 161.00 L774.50 161.00 L774.00 161.50ZM894.50 161.00 L895.50 161.00 L895.00 161.50ZM506.50 162.00 L507.50 162.00 L507.00 162.50ZM586.50 162.00 L587.50 162.00 L587.00 163.50 L586.50 163.00ZM775.50 162.00 L777.50 163.00 L776.00 162.50ZM896.50 162.00 L897.50 162.00 L897.00 162.50ZM362.50 164.00 L363.50 164.00 L363.00 165.50 L362.50 165.00ZM390.50 164.00 L391.50 164.00 L391.00 165.50 L390.50 165.00ZM533.50 165.00 L534.50 165.00 L534.00 165.50ZM778.50 165.00 L779.50 165.00 L779.00 165.50ZM505.50 166.00 L506.50 166.00 L506.00 166.50ZM558.50 166.00 L559.50 166.00 L559.00 168.50 L558.50 167.00ZM900.50 166.00 L901.50 166.00 L901.00 166.50ZM779.50 167.00 L780.50 167.00 L780.00 167.50ZM361.50 168.00 L362.50 168.00 L362.00 168.50ZM389.50 168.00 L390.50 168.00 L390.00 169.50 L389.50 169.00ZM585.50 168.00 L586.50 168.00 L586.00 171.50 L585.50 169.00ZM504.50 169.00 L505.50 169.00 L505.00 170.50 L504.50 170.00ZM532.50 169.00 L533.50 169.00 L533.00 169.50ZM806.50 169.00 L807.50 169.00 L807.00 170.50 L806.50 170.00ZM927.50 169.00 L928.50 169.00 L928.00 172.50 L927.50 170.00ZM360.50 172.00 L361.50 172.00 L361.00 172.50ZM388.50 172.00 L389.50 172.00 L389.00 172.50ZM531.50 172.00 L532.50 172.00 L532.00 173.50 L531.50 173.00ZM503.50 173.00 L504.50 173.00 L504.00 173.50ZM779.50 173.00 L780.50 173.00 L780.00 174.50 L779.50 174.00ZM805.50 174.00 L806.50 174.00 L806.00 175.50 L805.50 175.00ZM900.50 174.00 L901.50 174.00 L901.00 175.50 L900.50 175.00ZM359.50 175.00 L360.50 175.00 L360.00 176.50 L359.50 176.00ZM387.50 175.00 L388.50 175.00 L388.00 176.50 L387.50 176.00ZM926.50 175.00 L927.50 175.00 L927.00 176.50 L926.50 176.00ZM502.50 176.00 L503.50 176.00 L503.00 177.50 L502.50 177.00ZM530.50 176.00 L531.50 176.00 L531.00 177.50 L530.50 177.00ZM586.50 176.00 L587.50 176.00 L587.00 176.50ZM558.50 177.00 L559.50 177.00 L559.00 179.50 L558.50 178.00ZM778.50 177.00 L779.50 177.00 L779.00 177.50ZM899.50 177.00 L900.50 177.00 L900.00 177.50ZM804.50 178.00 L805.50 178.00 L805.00 178.50ZM358.50 179.00 L359.50 179.00 L359.00 179.50ZM386.50 179.00 L387.50 179.00 L387.00 180.50 L386.50 180.00ZM587.50 179.00 L588.50 179.00 L588.00 179.50ZM777.50 179.00 L778.50 179.00 L777.00 180.50 L777.00 179.50ZM898.50 179.00 L899.50 179.00 L899.00 179.50ZM925.50 179.00 L926.50 179.00 L926.00 179.50ZM501.50 180.00 L502.50 180.00 L502.00 181.50 L501.50 181.00ZM529.50 180.00 L530.50 180.00 L530.00 180.50ZM803.50 181.00 L804.50 181.00 L804.00 181.50ZM775.50 182.00 L776.50 182.00 L775.00 183.50 L775.00 182.50ZM896.50 182.00 L897.50 182.00 L896.00 183.50 L896.00 182.50ZM924.50 182.00 L925.50 182.00 L925.00 182.50ZM357.50 183.00 L358.50 183.00 L358.00 183.50ZM385.50 183.00 L386.50 183.00 L386.00 183.50ZM559.50 183.00 L560.50 183.00 L560.00 183.50ZM802.50 183.00 L803.50 183.00 L803.00 184.50 L802.50 184.00ZM500.50 184.00 L501.50 184.00 L501.00 185.50 L500.50 185.00ZM528.50 184.00 L529.50 184.00 L529.00 184.50ZM923.50 184.00 L924.50 184.00 L924.00 184.50ZM593.50 185.00 L594.50 185.00 L594.00 185.50ZM771.50 185.00 L772.50 185.00 L772.00 185.50ZM892.50 185.00 L893.50 185.00 L893.00 185.50ZM356.50 186.00 L357.50 186.00 L357.00 186.50ZM560.50 186.00 L561.50 186.00 L561.00 186.50ZM595.50 186.00 L596.50 186.00 L596.00 186.50ZM769.50 186.00 L770.50 186.00 L770.00 186.50ZM801.50 186.00 L802.50 186.00 L802.00 186.50ZM890.50 186.00 L891.50 186.00 L891.00 186.50ZM922.50 186.00 L923.50 186.00 L923.00 186.50ZM384.50 187.00 L385.50 187.00 L385.00 187.50ZM598.50 187.00 L599.50 187.00 L599.00 187.50ZM666.50 187.00 L669.50 187.00 L667.00 187.50ZM671.50 187.00 L672.50 187.00 L672.00 187.50ZM696.50 187.00 L697.50 187.00 L695.00 189.50 L696.00 187.50ZM701.50 187.00 L706.50 187.00 L702.00 187.50ZM766.50 187.00 L767.50 187.00 L767.00 187.50ZM817.50 187.00 L818.50 187.00 L818.00 187.50ZM823.50 187.00 L826.50 187.00 L824.00 187.50ZM887.50 187.00 L888.50 187.00 L888.00 187.50ZM499.50 188.00 L500.50 188.00 L500.00 188.50ZM527.50 188.00 L528.50 188.00 L528.00 188.50ZM602.50 188.00 L603.50 188.00 L603.00 188.50ZM654.50 188.00 L657.50 188.00 L655.00 188.50ZM714.50 188.00 L718.50 188.00 L715.00 188.50ZM761.50 188.00 L763.50 188.00 L762.00 188.50ZM800.50 188.00 L801.50 188.00 L801.00 188.50ZM835.50 188.00 L840.50 188.00 L836.00 188.50ZM882.50 188.00 L884.50 188.00 L883.00 188.50ZM921.50 188.00 L922.50 188.00 L922.00 188.50ZM609.50 189.00 L615.50 189.00 L610.00 189.50ZM631.50 189.00 L641.50 189.00 L632.00 189.50ZM735.50 189.00 L753.50 189.00 L736.00 189.50ZM853.50 189.00 L871.50 189.00 L854.00 189.50ZM355.50 190.00 L356.50 190.00 L356.00 190.50ZM383.50 190.00 L384.50 190.00 L384.00 190.50ZM814.50 190.00 L815.50 190.00 L815.00 190.50ZM498.50 191.00 L499.50 191.00 L499.00 192.50 L498.50 192.00ZM526.50 191.00 L527.50 191.00 L527.00 192.50 L526.50 192.00ZM673.50 191.00 L674.50 191.00 L674.00 191.50ZM693.50 191.00 L694.50 191.00 L694.00 192.50 L693.50 192.00ZM798.50 191.00 L799.50 191.00 L799.00 191.50ZM563.50 192.00 L564.50 192.00 L564.00 192.50ZM918.50 192.00 L919.50 192.00 L918.00 193.50 L918.00 192.50ZM354.50 193.00 L355.50 193.00 L355.00 194.50 L354.50 194.00ZM382.50 194.00 L383.50 194.00 L383.00 194.50ZM564.50 194.00 L567.50 196.00 L565.00 194.50ZM813.50 194.00 L814.50 194.00 L814.00 194.50ZM497.50 195.00 L498.50 195.00 L498.00 196.50 L497.50 196.00ZM525.50 195.00 L526.50 195.00 L526.00 196.50 L525.50 196.00ZM672.50 195.00 L673.50 195.00 L673.00 195.50ZM692.50 195.00 L693.50 195.00 L693.00 195.50ZM353.50 197.00 L354.50 197.00 L354.00 197.50ZM381.50 197.00 L382.50 197.00 L382.00 198.50 L381.50 198.00ZM812.50 197.00 L813.50 197.00 L813.00 197.50ZM913.50 197.00 L914.50 197.00 L912.00 199.50 L913.00 197.50ZM568.50 198.00 L571.50 200.00 L569.00 198.50ZM671.50 198.00 L672.50 198.00 L672.00 199.50 L671.50 199.00ZM791.50 198.00 L792.50 198.00 L791.00 199.50 L791.00 198.50ZM496.50 199.00 L497.50 199.00 L497.00 199.50ZM524.50 199.00 L525.50 199.00 L525.00 200.50 L524.50 200.00ZM691.50 199.00 L692.50 199.00 L692.00 199.50ZM909.50 200.00 L910.50 200.00 L909.00 201.50 L909.00 200.50ZM352.50 201.00 L353.50 201.00 L353.00 201.50ZM380.50 201.00 L381.50 201.00 L381.00 202.50 L380.50 202.00ZM572.50 201.00 L573.50 201.00 L573.00 201.50ZM787.50 201.00 L788.50 201.00 L788.00 201.50ZM811.50 201.00 L812.50 201.00 L812.00 201.50ZM523.50 202.00 L524.50 202.00 L524.00 203.50 L523.50 203.00ZM670.50 202.00 L671.50 203.00 L669.00 205.50 L670.50 203.00ZM906.50 202.00 L907.50 202.00 L907.00 202.50ZM495.50 203.00 L496.50 203.00 L496.00 203.50ZM575.50 203.00 L576.50 203.00 L576.00 203.50ZM783.50 203.00 L784.50 203.00 L784.00 203.50ZM904.50 203.00 L905.50 203.00 L905.00 203.50ZM577.50 204.00 L578.50 204.00 L578.00 204.50ZM781.50 204.00 L782.50 204.00 L782.00 204.50ZM811.50 204.00 L813.50 205.00 L812.00 204.50ZM901.50 204.00 L902.50 204.00 L902.00 204.50ZM379.50 205.00 L380.50 205.00 L380.00 205.50ZM495.50 205.00 L496.50 205.00 L496.00 205.50ZM580.50 205.00 L581.50 205.00 L581.00 205.50ZM778.50 205.00 L779.50 205.00 L779.00 205.50ZM899.50 205.00 L900.50 205.00 L900.00 205.50ZM352.50 206.00 L354.50 207.00 L353.00 206.50ZM583.50 206.00 L584.50 206.00 L584.00 206.50ZM665.50 206.00 L667.50 206.00 L666.00 206.50ZM693.50 206.00 L695.50 206.00 L694.00 206.50ZM775.50 206.00 L776.50 206.00 L776.00 206.50ZM814.50 206.00 L815.50 206.00 L815.00 206.50ZM895.50 206.00 L897.50 206.00 L896.00 206.50ZM377.50 207.00 L378.50 207.00 L378.00 207.50ZM520.50 207.00 L521.50 207.00 L521.00 207.50ZM586.50 207.00 L588.50 207.00 L587.00 207.50ZM655.50 207.00 L660.50 207.00 L656.00 207.50ZM699.50 207.00 L704.50 207.00 L700.00 207.50ZM770.50 207.00 L772.50 207.00 L771.00 207.50ZM820.50 207.00 L825.50 207.00 L821.00 207.50ZM890.50 207.00 L893.50 207.00 L891.00 207.50ZM592.50 208.00 L595.50 208.00 L593.00 208.50ZM642.50 208.00 L648.50 208.00 L643.00 208.50ZM713.50 208.00 L720.50 208.00 L714.00 208.50ZM762.50 208.00 L766.50 208.00 L763.00 208.50ZM832.50 208.00 L842.50 208.00 L833.00 208.50ZM883.50 208.00 L886.50 208.00 L884.00 208.50ZM604.50 209.00 L629.50 209.00 L605.00 209.50Z"></path><path fill="#ffffff" fill-rule="evenodd" d="M400.50 35.00 L424.00 34.50 L429.50 38.00 L460.00 116.50 L464.50 113.00 L485.50 89.00 L535.00 36.50 L540.00 34.50 L565.00 34.50 L567.50 36.00 L567.50 42.00 L563.50 58.00 L561.50 62.00 L559.50 73.00 L557.50 77.00 L552.50 99.00 L550.50 103.00 L542.50 135.00 L540.50 139.00 L539.50 146.00 L537.50 150.00 L536.50 157.00 L534.50 161.00 L533.50 168.00 L531.50 172.00 L525.50 198.00 L523.50 202.00 L523.50 205.00 L522.00 206.50 L520.00 207.50 L498.00 207.50 L495.50 204.00 L501.50 185.00 L508.50 156.00 L510.50 152.00 L511.50 145.00 L513.50 141.00 L520.50 111.00 L522.50 107.00 L529.50 79.00 L529.00 76.50 L496.50 110.00 L469.00 140.50 L461.00 143.50 L447.00 143.50 L442.00 141.50 L439.50 138.00 L431.50 115.00 L427.50 107.00 L426.50 102.00 L418.50 84.00 L417.50 79.00 L415.00 75.50 L409.50 97.00 L407.50 101.00 L405.50 112.00 L403.50 116.00 L401.50 127.00 L397.50 138.00 L396.50 145.00 L394.50 149.00 L393.50 156.00 L391.50 160.00 L385.50 186.00 L381.50 197.00 L380.50 204.00 L377.00 207.50 L355.00 207.50 L352.50 205.00 L356.50 187.00 L358.50 183.00 L364.50 158.00 L366.50 154.00 L368.50 143.00 L377.50 114.00 L381.50 95.00 L388.50 73.00 L393.50 50.00 L395.50 46.00 L395.50 42.00 L397.50 37.00 L400.00 35.50ZM630.50 84.00 L651.00 83.50 L652.00 84.50 L662.00 84.50 L663.00 85.50 L671.00 86.50 L682.00 91.50 L690.50 100.00 L694.50 111.00 L694.50 126.00 L688.50 148.00 L684.00 152.50 L678.00 152.50 L677.00 153.50 L589.00 153.50 L585.50 168.00 L587.50 179.00 L596.00 186.50 L603.00 188.50 L609.00 188.50 L610.00 189.50 L641.00 189.50 L642.00 188.50 L657.00 188.50 L658.00 187.50 L669.00 187.50 L671.00 186.50 L674.50 189.00 L671.50 201.00 L668.00 205.50 L665.00 206.50 L643.00 207.50 L642.00 208.50 L596.00 208.50 L579.00 204.50 L568.00 197.50 L564.50 193.00 L561.50 188.00 L558.50 176.00 L559.50 162.00 L564.50 142.00 L572.50 118.00 L579.50 106.00 L594.00 92.50 L613.00 85.50 L630.00 84.50ZM751.50 85.00 L801.00 84.50 L802.00 85.50 L816.00 85.50 L819.00 86.50 L821.50 89.00 L818.50 101.00 L816.00 104.50 L756.00 103.50 L749.00 105.50 L744.00 108.50 L739.50 114.00 L738.50 117.00 L738.50 124.00 L742.00 128.50 L755.00 133.50 L768.00 135.50 L790.00 141.50 L798.00 145.50 L804.50 152.00 L807.50 160.00 L807.50 168.00 L802.50 185.00 L798.50 192.00 L789.00 200.50 L781.00 204.50 L770.00 207.50 L763.00 207.50 L762.00 208.50 L721.00 208.50 L720.00 207.50 L705.00 207.50 L704.00 206.50 L693.00 205.50 L691.50 204.00 L692.50 196.00 L694.50 190.00 L698.00 186.50 L714.00 187.50 L715.00 188.50 L735.00 188.50 L736.00 189.50 L763.00 188.50 L770.00 186.50 L775.00 183.50 L779.50 177.00 L780.50 167.00 L776.00 161.50 L765.00 157.50 L757.00 156.50 L729.00 149.50 L721.00 145.50 L714.50 139.00 L712.50 134.00 L712.50 130.00 L711.50 129.00 L712.50 118.00 L714.50 111.00 L720.50 100.00 L727.00 93.50 L736.00 88.50 L746.00 85.50 L751.00 85.50ZM873.50 85.00 L922.00 84.50 L923.00 85.50 L938.00 85.50 L942.50 87.00 L943.50 89.00 L940.50 97.00 L940.50 100.00 L939.50 103.00 L937.00 104.50 L878.00 103.50 L870.00 105.50 L865.00 108.50 L859.50 117.00 L859.50 124.00 L860.50 126.00 L869.00 131.50 L908.00 140.50 L919.00 145.50 L925.50 152.00 L928.50 160.00 L928.50 168.00 L925.50 181.00 L921.50 189.00 L915.00 196.50 L908.00 201.50 L895.00 206.50 L884.00 207.50 L883.00 208.50 L843.00 208.50 L842.00 207.50 L816.00 206.50 L811.50 202.00 L814.50 194.00 L814.50 191.00 L819.00 186.50 L835.00 187.50 L836.00 188.50 L853.00 188.50 L854.00 189.50 L884.00 188.50 L891.00 186.50 L896.00 183.50 L901.50 175.00 L901.50 166.00 L897.00 161.50 L886.00 157.50 L869.00 154.50 L850.00 149.50 L842.00 145.50 L835.50 139.00 L833.50 134.00 L832.50 126.00 L833.50 125.00 L834.50 114.00 L841.50 100.00 L848.00 93.50 L857.00 88.50 L867.00 85.50 L873.00 85.50ZM643.00 102.50 L642.00 103.50 L625.00 103.50 L624.00 104.50 L620.00 104.50 L609.00 109.50 L601.50 117.00 L598.50 122.00 L594.50 135.00 L665.00 135.50 L666.50 134.00 L666.50 131.00 L668.50 127.00 L668.50 116.00 L666.50 111.00 L663.00 107.50 L657.00 104.50 L643.50 103.00Z"></path></svg>